# xmcd
#
# Track frame offsets:
#	150
#	27165
#	44795
#	69089
#	88134
#	107554
#	129659
#	161204
#	180669
#	202411
#	219796
#	237864
#	260249
#	278469
#	297037
#
# Disc length: 4349 seconds
#
# Revision: 0
# Processed by: cddbd v1.5.1PL0 Copyright (c) Steve Scherf et al.
# Submitted via: audiograbber 1.83.01
#
DISCID=e010fb0f
DTITLE=Michael Jackson - Golden collection 2000
DYEAR=1900
DGENRE=
TTITLE0=Thriller
TTITLE1=Another part of me
TTITLE2=Stranger in moscow
TTITLE3=Blood on the dance floor
TTITLE4=Beat it
TTITLE5=Billie jean
TTITLE6=Dangerous
TTITLE7=Smooth criminal
TTITLE8=D.S.
TTITLE9=Liberian girl
TTITLE10=Remember the time
TTITLE11=The way you make me feel
TTITLE12=Come together
TTITLE13=Bad
TTITLE14=Morphine
EXTD=
EXTT0=
EXTT1=
EXTT2=
EXTT3=
EXTT4=
EXTT5=
EXTT6=
EXTT7=
EXTT8=
EXTT9=
EXTT10=
EXTT11=
EXTT12=
EXTT13=
EXTT14=
PLAYORDER=
